<?xml version="1.0" encoding="utf-8"?>
<!-- Generator: Adobe Illustrator 15.0.2, SVG Export Plug-In  -->
<!DOCTYPE svg PUBLIC "-//W3C//DTD SVG 1.1//EN" "http://www.w3.org/Graphics/SVG/1.1/DTD/svg11.dtd" [
	<!ENTITY ns_flows "http://ns.adobe.com/Flows/1.0/">
]>
<svg version="1.1"
	 xmlns="http://www.w3.org/2000/svg" xmlns:xlink="http://www.w3.org/1999/xlink" xmlns:a="http://ns.adobe.com/AdobeSVGViewerExtensions/3.0/"
	 x="0px" y="0px" width="300px" height="300px" viewBox="-27.546 -3.367 300 300"
	 overflow="visible" enable-background="new -27.546 -3.367 300 300" xml:space="preserve">
<defs>
</defs>
<path fill="#4E59A4" d="M244.288,182.723l-19.648-10.621c-3.225,5.965-6.972,11.533-11.147,16.683l-21.803-21.81
	c9.579-12.839,15.258-28.75,15.258-45.965c0-20.534-7.989-39.857-22.497-54.411l-7.891-7.917l-54.512,54.43l15.782,15.806
	l37.891-37.833c5.787,8.824,8.892,19.139,8.892,29.924c0,30.15-24.526,54.679-54.673,54.679c-30.153,0-54.685-24.528-54.685-54.679
	c0-30.15,24.531-54.679,54.685-54.679V43.996c-17.215,0-33.128,5.679-45.968,15.259L62.094,37.378
	c8.454-6.819,18.049-12.448,28.598-16.582L82.543,0c-24.055,9.426-44.59,25.665-59.386,46.96C8.008,68.765,0,94.371,0,121.01
	c0,67.882,52.332,123.764,118.77,129.446v21.862H81.078v22.336h97.721v-22.336h-37.692v-21.874
	C184.471,246.721,223.328,221.5,244.288,182.723z M22.336,121.01c0-25.438,8.737-49.154,23.938-67.864l21.902,21.902
	c-9.58,12.838-15.259,28.749-15.259,45.962c0,42.466,34.551,77.015,77.021,77.015c17.211,0,33.12-5.678,45.957-15.257l21.806,21.813
	c-18.851,15.289-42.641,24.024-67.763,24.024C70.606,228.606,22.336,180.338,22.336,121.01z"/>
</svg>
